<svg xmlns="http://www.w3.org/2000/svg" width="71.967" height="72.374" viewBox="0 0 71.967 72.374">
  <path id="Subtraction_93" data-name="Subtraction 93" d="M-8535.516-1807.626h-63c-2.472,0-4.482-2.552-4.482-5.69v-60.994c0-3.137,2.011-5.69,4.482-5.69h63c2.472,0,4.482,2.552,4.482,5.69v60.994C-8531.033-1810.179-8533.044-1807.626-8535.516-1807.626Zm-55.634-23.964a.783.783,0,0,0-.782.783v1.564a.783.783,0,0,0,.782.783h14.816l5.038,0a.788.788,0,0,0,.737-.518.585.585,0,0,0,.065-.048l11.516-9.323,3.269-2.65h6.691v3.468a.783.783,0,0,0,.255.709l1.176,1.032a.772.772,0,0,0,.514.2.793.793,0,0,0,.591-.267l5.412-6.184a.787.787,0,0,0,0-1.032l-5.412-6.186a.787.787,0,0,0-.591-.267.787.787,0,0,0-.518.2l-1.172,1.032a.785.785,0,0,0-.255.711v3.464h-6.408a.783.783,0,0,0-.285-.516l-3.915-3.172-11.515-9.325a.694.694,0,0,0-.063-.046.788.788,0,0,0-.739-.52h-5.036l-14.815,0a.784.784,0,0,0-.783.783v1.564a.784.784,0,0,0,.783.783h18.846l7.273,5.891,5.632,4.56h-31.751a.784.784,0,0,0-.783.783v1.564a.783.783,0,0,0,.783.781h31.114l-4.35,3.522-7.273,5.889h-18.847Z" transform="translate(8603 1880)" fill="#395bbe"/>
</svg>
