<svg xmlns="http://www.w3.org/2000/svg" width="77.905" height="64.399" viewBox="0 0 77.905 64.399">
  <g id="Group_549" data-name="Group 549" transform="translate(-554.062 -1795.72)">
    <path id="Union_37" data-name="Union 37" d="M39.34,64.4a5.515,5.515,0,0,1-5.51-5.51V33.669l7.332,5.937H37.5V44.2H43.93v-2.35l5.554,4.5a5.093,5.093,0,0,0-.05.713,5.186,5.186,0,0,0,.064.813H47.6v4.591h6.428v-.329c.164.016.332.024.5.024a5.046,5.046,0,0,0,3.171-1.1v1.409h6.428V47.869H59.568a5.172,5.172,0,0,0,.065-.813,5.071,5.071,0,0,0-.876-2.86h5.376V39.605H57.7v3.457a5.045,5.045,0,0,0-3.172-1.106c-.163,0-.333.008-.5.024V39.605H48.453l-14.4-11.66a5.565,5.565,0,0,1,1.96-2.83A5.454,5.454,0,0,1,39.34,24H72.4a5.516,5.516,0,0,1,5.51,5.509V58.889A5.516,5.516,0,0,1,72.4,64.4ZM67.8,60.725H72.4a1.838,1.838,0,0,0,1.837-1.836V56.134H67.8Zm-10.1,0h6.428V56.134H57.7Zm-10.1,0h6.428V56.134H47.6ZM37.5,58.889a1.838,1.838,0,0,0,1.836,1.836h4.59V56.134H37.5Zm30.3-6.428h6.428V47.869H67.8Zm-30.3,0H43.93V47.869H37.5ZM67.8,44.2h6.428V39.605H67.8ZM54.448,49.053a2.041,2.041,0,0,1-2.464-2L17.971,19.515c-.051,0-.1.006-.155.006a2.04,2.04,0,1,1,2.04-2.04,2.137,2.137,0,0,1-.017.266l33.737,27.32a2.041,2.041,0,0,1,2.486,1.99v.023l.049.04-.053.065a2.042,2.042,0,0,1-1.489,1.839l-.063.078ZM31.681,40.4H5.51A5.516,5.516,0,0,1,0,34.892V5.508A5.516,5.516,0,0,1,5.51,0H38.566a5.516,5.516,0,0,1,5.511,5.508V21.847H37.19a5.521,5.521,0,0,0-5.373,4.287L30.3,24.907V23.874H29.027L24.49,20.2H30.3V15.609H23.875V19.7l-1.128-.914a5.1,5.1,0,1,0-3.053,3.434l4.181,3.386v2.857H27.4l4.277,3.465V40.4l0,0Zm-7.806-3.673H30.3V32.138H23.875Zm-10.1,0H20.2V32.138H13.773Zm-10.1-1.837A1.838,1.838,0,0,0,5.51,36.729H10.1V32.138H3.674Zm10.1-6.427H20.2V23.874H13.773Zm-10.1,0H10.1V23.874H3.674Zm30.3-8.265H40.4V15.609H33.976Zm-30.3,0H10.1V15.609H3.674Z" transform="translate(554.062 1795.72)" fill="#63c4fe"/>
  </g>
</svg>
