<svg xmlns="http://www.w3.org/2000/svg" width="81.502" height="78.256" viewBox="0 0 81.502 78.256">
  <g id="Group_552" data-name="Group 552" transform="translate(-1335.521 -1345.737)">
    <g id="Group_532" data-name="Group 532" transform="translate(1378.386 1380.169)">
      <path id="Subtraction_21" data-name="Subtraction 21" d="M35.6,43.824H3.038A3.115,3.115,0,0,1,0,40.643V3.179A3.114,3.114,0,0,1,3.038,0h21.7V1.051a3.194,3.194,0,0,0-.017.337V10.1A4.386,4.386,0,0,0,29,14.575h8.32c.092,0,.195-.007.264-.012h1.057v26.08A3.115,3.115,0,0,1,35.6,43.824ZM6.624,27.525a1.943,1.943,0,0,0,0,3.886H32.161a1.943,1.943,0,0,0,0-3.886Zm0-7.772a1.943,1.943,0,0,0,0,3.886H32.161a1.943,1.943,0,0,0,0-3.886ZM37.352,11.88H29.228a2.482,2.482,0,0,1-2.46-2.46V1.291a1.223,1.223,0,0,1,.387-.9,1.281,1.281,0,0,1,.865-.343,1.213,1.213,0,0,1,.872.369l9.342,9.342a1.245,1.245,0,0,1-.883,2.125Z" transform="translate(0 0)" fill="#e849a4"/>
    </g>
    <g id="Group_526" data-name="Group 526" transform="translate(1335.521 1345.737)">
      <path id="Subtraction_21-2" data-name="Subtraction 21" d="M35.6,43.824H3.038A3.115,3.115,0,0,1,0,40.643V3.179A3.114,3.114,0,0,1,3.038,0h21.7V1.051a3.194,3.194,0,0,0-.017.337V10.1A4.386,4.386,0,0,0,29,14.575h8.32c.092,0,.195-.007.264-.012h1.057v26.08A3.115,3.115,0,0,1,35.6,43.824ZM6.624,27.525a1.943,1.943,0,0,0,0,3.886H32.161a1.943,1.943,0,0,0,0-3.886Zm0-7.772a1.943,1.943,0,0,0,0,3.886H32.161a1.943,1.943,0,0,0,0-3.886ZM37.352,11.88H29.228a2.482,2.482,0,0,1-2.46-2.46V1.291a1.223,1.223,0,0,1,.387-.9,1.281,1.281,0,0,1,.865-.343,1.213,1.213,0,0,1,.872.369l9.342,9.342a1.245,1.245,0,0,1-.883,2.125Z" transform="translate(0 0)" fill="#e849a4"/>
    </g>
    <path id="Union_27" data-name="Union 27" d="M.738,16.518A.738.738,0,0,1,0,15.78V14.3a.739.739,0,0,1,.738-.738H15.11v-8.6l-2.9,2.541a.74.74,0,0,1-1.04-.067L10.2,6.334a.737.737,0,0,1,.068-1.043L16.1.183a.737.737,0,0,1,.972,0l5.835,5.109a.736.736,0,0,1,.068,1.041L22,7.441a.741.741,0,0,1-1.042.067l-2.9-2.541V15.5a.739.739,0,0,1-.47.688.737.737,0,0,1-.617.332Z" transform="translate(1371.075 1395.212) rotate(90)" fill="#e849a4"/>
    <path id="Union_28" data-name="Union 28" d="M.738,16.518A.738.738,0,0,1,0,15.78V14.3a.739.739,0,0,1,.738-.738H15.11v-8.6l-2.9,2.541a.74.74,0,0,1-1.04-.067L10.2,6.334a.737.737,0,0,1,.068-1.043L16.1.183a.737.737,0,0,1,.972,0l5.835,5.109a.736.736,0,0,1,.068,1.041L22,7.441a.741.741,0,0,1-1.042.067l-2.9-2.541V15.5a.739.739,0,0,1-.47.688.737.737,0,0,1-.617.332Z" transform="translate(1388.286 1371.993) rotate(-90)" fill="#e849a4"/>
  </g>
</svg>
