<svg xmlns="http://www.w3.org/2000/svg" width="82.844" height="71.619" viewBox="0 0 82.844 71.619">
  <g id="Group_553" data-name="Group 553" transform="translate(-236.687 -680.567)">
    <path id="Union_58" data-name="Union 58" d="M-6196.369-1817.38a6.639,6.639,0,0,1-6.631-6.631v-35.366a6.639,6.639,0,0,1,6.631-6.631h39.787a6.64,6.64,0,0,1,6.632,6.631v35.366a6.64,6.64,0,0,1-6.632,6.631Zm34.261-4.42h5.525a2.214,2.214,0,0,0,2.211-2.211v-3.316h-7.736Zm-12.157,0h7.736v-5.526h-7.736Zm-12.157,0h7.737v-5.526h-7.737Zm-12.156-2.211a2.214,2.214,0,0,0,2.209,2.211h5.527v-5.526h-7.736Zm36.471-7.736h7.736v-5.526h-7.736Zm-12.157,0h7.736v-5.526h-7.736Zm-12.157,0h7.737v-5.526h-7.737Zm-12.156,0h7.736v-5.526h-7.736Zm36.471-9.947h7.736v-5.526h-7.736Zm-12.157,0h7.736v-5.526h-7.736Zm-12.157,0h7.737v-5.526h-7.737Zm-12.156,0h7.736v-5.526h-7.736Zm50.745,15.339h0V-1840.3c.348,0,.677.007,1.008.007.529,0,1.1-.006,1.79-.02l.434-.008c.57-.013,1.15-.032,1.776-.059l.138-.006c.55-.026,1.108-.056,1.658-.091l.432-.032c.7-.048,1.233-.089,1.739-.133l.212-.019c.5-.047,1.025-.1,1.549-.157l.422-.046c.555-.06,1.115-.13,1.664-.208l.288-.04c.5-.072.982-.144,1.419-.215l.133-.021.256-.041c.519-.086,1.046-.18,1.567-.28l.309-.062c.44-.086.877-.178,1.3-.273l.12-.026.229-.05c.5-.113.986-.229,1.435-.348l.181-.049.129-.035c.473-.129.831-.231,1.16-.332l.293-.088c.434-.136.859-.277,1.267-.423l.288-.105c.348-.128.691-.262,1.019-.4l.222-.091c.35-.148.7-.31,1.072-.494l.242-.125c.293-.151.58-.309.854-.47.028-.017.059-.035.088-.051l.059-.034c.29-.179.565-.364.839-.567a.309.309,0,0,1,.044-.03l.045-.032,0,12.415c0,2.906-10.146,6.958-26.671,6.958-.344,0-.681.008-1,.025Zm0-16.253v-13.929c.347,0,.677.007,1.008.007.529,0,1.1-.007,1.79-.02l.434-.009c.589-.012,1.186-.033,1.776-.058l.138-.006c.55-.026,1.108-.056,1.658-.091l.432-.033c.516-.035,1.125-.079,1.739-.133l.212-.019c.5-.046,1.025-.1,1.549-.156l.422-.046c.554-.06,1.115-.131,1.664-.208l.288-.041c.5-.071.982-.143,1.419-.215l.129-.02h0l.256-.041c.54-.089,1.067-.183,1.567-.28l.309-.061c.439-.087.877-.179,1.3-.273l.12-.026.229-.051c.5-.111.986-.228,1.435-.347l.18-.049.13-.036c.473-.128.831-.23,1.16-.331l.293-.089c.434-.135.859-.277,1.267-.422l.288-.105c.348-.128.691-.262,1.019-.4l.222-.09c.35-.148.7-.31,1.072-.494l.242-.125c.3-.154.585-.311.854-.47l.088-.052.059-.034c.29-.179.565-.364.839-.567.013-.01.03-.02.044-.03a.524.524,0,0,0,.045-.031l0,12.415c0,2.906-10.146,6.958-26.671,6.958-.34,0-.677,0-1,.006Zm0-16.247v-2.639a6.638,6.638,0,0,0-6.631-6.631H-6173.5v-10.083c.013.01.028.019.044.03a.32.32,0,0,1,.044.031c.258.191.541.382.84.567.022.014.047.028.071.041s.052.03.076.044c.263.148.547.307.853.464l.242.126c.335.166.7.333,1.071.494l.222.09c.342.142.686.276,1.02.4l.285.105c.415.146.842.289,1.269.422l.293.089c.391.117.781.228,1.16.331l.079.021c.078.022.155.043.232.062.49.127.972.244,1.434.348l.232.051.116.025c.432.1.869.189,1.3.275l.309.061c.5.1,1.026.189,1.567.28l.224.036h0l.162.026c.524.084.989.154,1.419.214l.291.036c.561.075,1.122.144,1.667.208l.421.046c.521.057,1.043.109,1.55.156l.211.021c.527.046,1.1.089,1.74.133l.433.029c.55.035,1.108.066,1.659.09l.139.007c.566.025,1.163.044,1.775.058l.434.009c.65.013,1.236.019,1.79.019s1.14-.006,1.79-.019l.434-.009c.58-.012,1.177-.033,1.776-.058l.138-.007c.55-.024,1.108-.055,1.658-.09l.432-.038c.667-.046,1.219-.088,1.739-.134l.212-.019c.5-.046,1.007-.1,1.549-.156l.422-.046c.573-.062,1.133-.133,1.664-.207l.288-.041c.477-.068.955-.139,1.419-.215l.11-.017.279-.045c.533-.088,1.061-.182,1.567-.279l.309-.061c.447-.089.885-.181,1.3-.274l.12-.026.229-.051c.49-.108.973-.225,1.435-.348.066-.016.131-.034.2-.052l.113-.031c.354-.1.764-.211,1.16-.332l.293-.088c.454-.142.868-.28,1.267-.423l.288-.105c.352-.129.695-.263,1.019-.4l.222-.09c.354-.151.705-.312,1.072-.493l.242-.126c.279-.138.566-.295.854-.464.026-.016.053-.032.081-.047l.065-.039c.29-.179.565-.364.839-.567a.521.521,0,0,1,.044-.03c.014-.01.03-.021.045-.031l0,12.415c0,2.9-10.146,6.957-26.671,6.957C-6147.164-1858.85-6147.5-1858.851-6147.834-1858.855Zm-17.854-18.267a21.561,21.561,0,0,1-5.716-2.212c-1.391-.858-2.1-1.769-2.1-2.708s.705-1.85,2.1-2.709a21.561,21.561,0,0,1,5.716-2.212,78.18,78.18,0,0,1,18.859-2.038,78.185,78.185,0,0,1,18.859,2.038,21.574,21.574,0,0,1,5.716,2.212c1.391.859,2.1,1.769,2.1,2.709s-.706,1.85-2.1,2.708a21.574,21.574,0,0,1-5.716,2.212,78.191,78.191,0,0,1-18.859,2.038A78.192,78.192,0,0,1-6165.687-1877.122Z" transform="translate(6439.687 2569.566)" fill="#ae54d1"/>
  </g>
</svg>
