<svg xmlns="http://www.w3.org/2000/svg" width="68.138" height="74.373" viewBox="0 0 68.138 74.373">
  <path id="Union_57" data-name="Union 57" d="M-8557.633-1806.916a16.326,16.326,0,0,1-5.21-3.513,16.318,16.318,0,0,1-3.514-5.21,16.308,16.308,0,0,1-1.289-6.38,16.309,16.309,0,0,1,1.289-6.38,16.332,16.332,0,0,1,3.514-5.21,16.324,16.324,0,0,1,5.21-3.513,16.3,16.3,0,0,1,6.381-1.287,16.309,16.309,0,0,1,6.381,1.287,16.346,16.346,0,0,1,5.21,3.513,16.328,16.328,0,0,1,3.513,5.21,16.289,16.289,0,0,1,1.286,6.38,16.288,16.288,0,0,1-1.286,6.38,16.327,16.327,0,0,1-3.513,5.21,16.348,16.348,0,0,1-5.21,3.513,16.29,16.29,0,0,1-6.381,1.288A16.287,16.287,0,0,1-8557.633-1806.916Zm.515-5.185h12.646v-3.613h-12.646Zm4.971-16.071v9.024a.635.635,0,0,0,.633.633h1.266a.633.633,0,0,0,.631-.633v-9.025l2.485,2.178a.639.639,0,0,0,.419.156.637.637,0,0,0,.476-.213l.831-.95a.628.628,0,0,0,.157-.458.623.623,0,0,0-.215-.436l-5-4.376a.631.631,0,0,0-.418-.156.629.629,0,0,0-.416.156l-5,4.376a.634.634,0,0,0-.214.436.631.631,0,0,0,.156.46l.834.948a.634.634,0,0,0,.476.213.627.627,0,0,0,.415-.156l2.485-2.177h0Zm-50.853,10v-13.782c.014.012.032.022.049.034v0h0c.016.01.034.022.047.032.279.208.592.42.932.629l.077.046a.9.9,0,0,1,.086.051c.33.191.64.361.948.52l.269.141c.39.191.79.377,1.19.549l.246.1c.38.157.761.306,1.132.441l.319.118c.449.16.923.319,1.406.469l.327.1c.422.126.855.251,1.288.368l.138.038.011,0c.065.018.13.036.2.053.5.13,1.036.259,1.591.386l.224.049.164.035c.473.107.958.209,1.445.3l.343.068c.561.108,1.147.212,1.741.311l.276.046h.013l.056.009.087.014c.526.084,1.058.164,1.576.237l.324.042c.656.087,1.262.161,1.851.229l.469.052c.549.061,1.127.12,1.722.174l.233.021c.564.049,1.179.1,1.933.148l.482.031c.651.042,1.255.075,1.842.1l.152.008c.608.026,1.254.047,1.973.064l.481.01c.771.016,1.4.022,1.988.022.559,0,1.155-.007,1.879-.02a20.81,20.81,0,0,0-.369,3.9,20.5,20.5,0,0,0,3.479,11.46c-1.637.077-3.315.115-4.994.115C-8591.73-1810.445-8603-1814.946-8603-1818.172Zm0-18.034v-13.781a.438.438,0,0,0,.05.034l0,0a.368.368,0,0,1,.045.03c.284.213.6.425.932.631l.077.045c.029.016.06.032.086.05.325.191.635.361.948.521l.269.141c.366.181.755.36,1.19.549l.246.1c.377.156.758.3,1.132.442l.319.117c.452.161.926.318,1.406.468l.327.1c.431.129.863.252,1.288.367l.083.023c.079.022.17.048.263.07.522.135,1.059.265,1.591.387l.2.043.033.006.156.035c.521.116.993.215,1.445.3l.343.068c.529.1,1.1.2,1.741.311l.263.043.017,0,.152.025c.565.091,1.081.169,1.576.238l.324.04c.6.079,1.221.157,1.851.229l.469.052c.576.064,1.157.122,1.722.173l.233.022c.56.049,1.172.1,1.933.148l.482.032c.581.036,1.185.069,1.842.1l.152.009c.716.029,1.358.051,1.973.064l.481.01c.713.016,1.363.022,1.988.022s1.277-.006,1.989-.022l.481-.01c.617-.013,1.262-.034,1.973-.064l.152-.009c.656-.03,1.259-.062,1.842-.1l.479-.036c.621-.043,1.285-.091,1.934-.148l.233-.022c.612-.056,1.178-.113,1.723-.172l.468-.052c.629-.069,1.251-.147,1.849-.23l.319-.046c.533-.076,1.063-.155,1.578-.238l.141-.023c.1-.014.194-.03.291-.047.624-.1,1.193-.205,1.742-.309l.342-.069c.493-.1.979-.2,1.444-.3l.093-.021c.1-.021.2-.042.293-.063.579-.129,1.1-.256,1.595-.386l.215-.059.13-.035c.5-.138.913-.255,1.287-.368l.325-.1c.516-.162.977-.316,1.409-.469l.319-.117c.415-.153.786-.3,1.131-.442l.246-.1c.395-.169.784-.348,1.188-.55l.271-.138c.332-.172.651-.347.948-.523.03-.018.063-.038.1-.056l.021-.012.046-.027c.326-.2.641-.413.932-.629a.524.524,0,0,1,.05-.034l0,0c.016-.01.031-.021.044-.031v8.779a20.513,20.513,0,0,0-7.5-1.409,20.588,20.588,0,0,0-6.521,1.053,20.546,20.546,0,0,0-5.661,2.931,20.746,20.746,0,0,0-4.462,4.469,20.68,20.68,0,0,0-2.923,5.666c-.846.02-1.706.03-2.556.03C-8591.73-1828.478-8603-1832.979-8603-1836.206Zm17.252-11.06a59.806,59.806,0,0,1-9.322-1.9,23.589,23.589,0,0,1-5.883-2.505c-1.339-.874-2.047-1.76-2.047-2.567v-13.775c.015.012.032.022.049.034s.034.022.049.032c.283.212.6.424.932.631l.08.047.006,0c.027.014.053.03.077.046.357.2.658.365.948.515l.269.139c.392.194.792.378,1.19.55l.246.1c.383.159.763.307,1.132.441l.319.118c.473.168.945.325,1.406.468l.327.1c.43.129.862.252,1.288.367l.1.027c.087.025.167.047.247.068.512.133,1.048.261,1.591.385.135.031.271.06.388.086.476.105.961.208,1.445.3l.343.068c.533.1,1.1.2,1.741.311l.289.047.052.008.091.016c.577.092,1.093.17,1.576.236l.324.042c.6.079,1.219.156,1.851.229l.469.052c.563.062,1.142.121,1.722.173l.233.022c.563.049,1.179.1,1.933.148l.482.031c.59.038,1.211.072,1.842.1l.152.008c.614.026,1.258.047,1.973.064l.481.01c.771.015,1.4.022,1.988.022s1.219-.007,1.989-.022l.481-.01c.62-.013,1.264-.034,1.973-.064l.152-.008c.636-.03,1.257-.064,1.842-.1l.479-.042c.7-.048,1.331-.1,1.934-.148l.233-.022c.555-.051,1.119-.108,1.723-.172l.468-.053c.6-.064,1.224-.142,1.849-.229l.319-.046c.587-.083,1.1-.161,1.578-.239l.137-.021.295-.048c.584-.1,1.17-.2,1.742-.311l.342-.068c.477-.095.963-.2,1.444-.3l.146-.033h0l.237-.053c.527-.116,1.063-.246,1.595-.386l.2-.055.011,0,.018-.005.112-.03c.438-.121.867-.239,1.287-.368l.325-.1c.516-.161.977-.315,1.409-.468l.319-.117c.388-.143.769-.291,1.131-.442l.246-.1c.394-.168.784-.347,1.188-.549l.271-.138c.31-.153.628-.326.948-.516.03-.02.063-.038.1-.056l.007,0,.06-.035c.324-.2.64-.412.932-.629a.574.574,0,0,1,.05-.034l.006,0,.043-.03,0,13.79c0,.806-.707,1.693-2.049,2.567a23.58,23.58,0,0,1-5.882,2.505,59.782,59.782,0,0,1-9.322,1.9,96.339,96.339,0,0,1-12.373.755A96.35,96.35,0,0,1-8585.748-1847.266Zm-8.572-19.541a23.926,23.926,0,0,1-6.35-2.457c-1.545-.952-2.328-1.965-2.328-3.007s.783-2.056,2.328-3.009a23.93,23.93,0,0,1,6.35-2.456,86.821,86.821,0,0,1,20.948-2.264,86.827,86.827,0,0,1,20.948,2.264,23.963,23.963,0,0,1,6.35,2.456c1.545.953,2.327,1.965,2.327,3.009s-.782,2.056-2.327,3.007a23.913,23.913,0,0,1-6.35,2.457,86.9,86.9,0,0,1-20.948,2.264A86.9,86.9,0,0,1-8594.32-1866.807Z" transform="translate(8602.999 1880.001)" fill="#f3c20e"/>
</svg>
