<svg xmlns="http://www.w3.org/2000/svg" width="163.503" height="163.503" viewBox="0 0 163.503 163.503">
  <g id="Group_881" data-name="Group 881" transform="translate(-1083 -1775.748)">
    <g id="Group_865" data-name="Group 865" transform="translate(0 474)">
      <circle id="Ellipse_147" data-name="Ellipse 147" cx="81.751" cy="81.751" r="81.751" transform="translate(1083 1301.748)" fill="#4dc4ff"/>
      <text id="Joiner" transform="translate(1138 1432)" fill="#fff" font-size="18" font-family="HelveticaNeue-Bold, Helvetica Neue" font-weight="700"><tspan x="0" y="0">Joiner</tspan></text>
      <g id="Group_844" data-name="Group 844" transform="translate(576.351 -459.991)">
        <path id="Union_37" data-name="Union 37" d="M34.373,56.269a4.819,4.819,0,0,1-4.814-4.814V29.418l6.406,5.187h-3.2v4.012h5.615V36.564l4.852,3.929a4.45,4.45,0,0,0-.044.623,4.531,4.531,0,0,0,.056.71H41.594v4.012h5.617v-.287c.144.014.29.021.437.021a4.409,4.409,0,0,0,2.771-.965v1.232h5.616V41.826H52.048a4.518,4.518,0,0,0,.056-.71,4.431,4.431,0,0,0-.766-2.5h4.7V34.605H50.42v3.021a4.408,4.408,0,0,0-2.772-.966c-.143,0-.291.007-.437.021V34.605H42.336L29.756,24.417a4.863,4.863,0,0,1,1.712-2.473,4.765,4.765,0,0,1,2.906-.978H63.256a4.82,4.82,0,0,1,4.814,4.814V51.454a4.82,4.82,0,0,1-4.814,4.814Zm24.871-3.21h4.012a1.606,1.606,0,0,0,1.6-1.6V49.047H59.245Zm-8.825,0h5.616V49.047H50.42Zm-8.825,0h5.617V49.047H41.594Zm-8.825-1.6a1.606,1.606,0,0,0,1.6,1.6h4.011V49.047H32.769Zm26.476-5.617h5.616V41.826H59.245Zm-26.476,0h5.615V41.826H32.769Zm26.476-7.22h5.616V34.605H59.245ZM47.574,42.86a1.783,1.783,0,0,1-2.153-1.744L15.7,17.051c-.045,0-.09.005-.136.005a1.782,1.782,0,1,1,1.783-1.783,1.867,1.867,0,0,1-.015.232L46.813,39.377a1.783,1.783,0,0,1,2.172,1.739v.02l.043.035-.046.057a1.784,1.784,0,0,1-1.3,1.606l-.055.068ZM27.681,35.3H4.814A4.82,4.82,0,0,1,0,30.487V4.813A4.819,4.819,0,0,1,4.814,0H33.7a4.819,4.819,0,0,1,4.815,4.813V19.089H32.5A4.824,4.824,0,0,0,27.8,22.835l-1.324-1.072v-.9H25.362L21.4,17.65h5.078V13.638H20.861v3.576l-.986-.8a4.456,4.456,0,1,0-2.668,3l3.653,2.958v2.5h3.083L27.681,27.9v7.4h0Zm-6.821-3.209h5.616V28.081H20.861Zm-8.826,0h5.617V28.081H12.035Zm-8.825-1.6a1.606,1.606,0,0,0,1.6,1.6H8.826V28.081H3.21Zm8.825-5.616h5.617V20.86H12.035Zm-8.825,0H8.826V20.86H3.21ZM29.687,17.65H35.3V13.638H29.687Zm-26.477,0H8.826V13.638H3.21Z" transform="translate(554.062 1795.72)" fill="#fff"/>
      </g>
    </g>
  </g>
</svg>
