<svg xmlns="http://www.w3.org/2000/svg" width="163.503" height="163.503" viewBox="0 0 163.503 163.503">
  <g id="Group_875" data-name="Group 875" transform="translate(-599 -1498.748)">
    <g id="Group_853" data-name="Group 853" transform="translate(0 779)">
      <circle id="Ellipse_132" data-name="Ellipse 132" cx="81.751" cy="81.751" r="81.751" transform="translate(599 719.748)" fill="#ff4da5"/>
      <text id="Mapper" transform="translate(648 850)" fill="#fff" font-size="18" font-family="HelveticaNeue-Bold, Helvetica Neue" font-weight="700"><tspan x="0" y="0">Mapper</tspan></text>
      <g id="Group_837" data-name="Group 837" transform="translate(-687.521 -593.656)">
        <g id="Group_532" data-name="Group 532" transform="translate(1370.261 1373.642)">
          <path id="Subtraction_21" data-name="Subtraction 21" d="M28.851,35.517H2.461A2.524,2.524,0,0,1,0,32.939V2.577A2.524,2.524,0,0,1,2.461,0H20.047V.852a2.7,2.7,0,0,0-.014.273V8.183a3.556,3.556,0,0,0,3.468,3.63h6.743c.061,0,.126,0,.19-.008l.023,0h.857V32.939A2.525,2.525,0,0,1,28.851,35.517ZM5.368,22.307a1.575,1.575,0,1,0,0,3.149h20.7a1.575,1.575,0,1,0,0-3.149Zm0-6.3a1.575,1.575,0,1,0,0,3.149h20.7a1.575,1.575,0,1,0,0-3.149Zm24.9-6.38H23.688a2.011,2.011,0,0,1-1.993-1.994V1.047a.994.994,0,0,1,.313-.733,1.039,1.039,0,0,1,.7-.277.984.984,0,0,1,.707.3l7.571,7.572a1.009,1.009,0,0,1-.715,1.722Z" transform="translate(0 0)" fill="#fff"/>
        </g>
        <g id="Group_526" data-name="Group 526" transform="translate(1335.521 1345.737)">
          <path id="Subtraction_21-2" data-name="Subtraction 21" d="M28.851,35.517H2.461A2.524,2.524,0,0,1,0,32.939V2.577A2.524,2.524,0,0,1,2.461,0H20.047V.852a2.7,2.7,0,0,0-.014.273V8.183a3.556,3.556,0,0,0,3.468,3.63h6.743c.061,0,.126,0,.19-.008l.023,0h.857V32.939A2.525,2.525,0,0,1,28.851,35.517ZM5.368,22.307a1.575,1.575,0,1,0,0,3.149h20.7a1.575,1.575,0,1,0,0-3.149Zm0-6.3a1.575,1.575,0,1,0,0,3.149h20.7a1.575,1.575,0,1,0,0-3.149Zm24.9-6.38H23.688a2.011,2.011,0,0,1-1.993-1.994V1.047a.994.994,0,0,1,.313-.733,1.039,1.039,0,0,1,.7-.277.984.984,0,0,1,.707.3l7.571,7.572a1.009,1.009,0,0,1-.715,1.722Z" transform="translate(0 0)" fill="#fff"/>
        </g>
        <path id="Union_27" data-name="Union 27" d="M.6,13.387a.6.6,0,0,1-.6-.6v-1.2a.6.6,0,0,1,.6-.6H12.246V4.025L9.895,6.085a.6.6,0,0,1-.843-.054l-.788-.9a.6.6,0,0,1,.055-.845l4.73-4.14a.6.6,0,0,1,.788,0l4.729,4.14a.6.6,0,0,1,.055.844l-.788.9a.6.6,0,0,1-.844.054l-2.35-2.059V12.56a.6.6,0,0,1-.381.558.6.6,0,0,1-.5.269Z" transform="translate(1364.335 1385.833) rotate(90)" fill="#fff"/>
        <path id="Union_28" data-name="Union 28" d="M.6,13.387a.6.6,0,0,1-.6-.6v-1.2a.6.6,0,0,1,.6-.6H12.246V4.025L9.895,6.085a.6.6,0,0,1-.843-.054l-.788-.9a.6.6,0,0,1,.055-.845l4.73-4.14a.6.6,0,0,1,.788,0l4.729,4.14a.6.6,0,0,1,.055.844l-.788.9a.6.6,0,0,1-.844.054l-2.35-2.059V12.56a.6.6,0,0,1-.381.558.6.6,0,0,1-.5.269Z" transform="translate(1378.284 1367.016) rotate(-90)" fill="#fff"/>
      </g>
    </g>
  </g>
</svg>
