<svg xmlns="http://www.w3.org/2000/svg" width="163.503" height="163.503" viewBox="0 0 163.503 163.503">
  <g id="Group_882" data-name="Group 882" transform="translate(-1325 -1498.748)">
    <g id="Group_868" data-name="Group 868" transform="translate(0 779)">
      <g id="Group_867" data-name="Group 867">
        <circle id="Ellipse_140" data-name="Ellipse 140" cx="81.751" cy="81.751" r="81.751" transform="translate(1325 719.748)" fill="#395bbe"/>      
        <path id="Union_62" data-name="Union 62" d="M-8596.5-1826a6.5,6.5,0,0,1-6.5-6.5,6.5,6.5,0,0,1,4-6h-.177l24.287-14.787-23.605-14.025a6.5,6.5,0,0,1-4.5-6.186,6.5,6.5,0,0,1,6.5-6.5h47a6.5,6.5,0,0,1,6.5,6.5,6.5,6.5,0,0,1-6.5,6.5h-27.939l18.25,10.875v6.086L-8577.2-1839h27.7a6.5,6.5,0,0,1,6.5,6.5,6.5,6.5,0,0,1-6.5,6.5Z" transform="translate(9980 2639)" fill="#fff"/>
      </g>
    </g>
  </g>
</svg>
