<svg xmlns="http://www.w3.org/2000/svg" width="163.503" height="163.503" viewBox="0 0 163.503 163.503">
  <g id="Group_872" data-name="Group 872" transform="translate(-356 -1498.748)">
    <g id="Group_849" data-name="Group 849" transform="translate(0 779)">
      <g id="Group_848" data-name="Group 848">
        <g id="Group_847" data-name="Group 847">
          <g id="Group_846" data-name="Group 846">
            <circle id="Ellipse_116" data-name="Ellipse 116" cx="81.751" cy="81.751" r="81.751" transform="translate(356 719.748)" fill="#ae54d1"/>
            <text id="Source_" data-name="Source " transform="translate(405 850)" fill="#fff" font-size="18" font-family="HelveticaNeue-Bold, Helvetica Neue" font-weight="700"><tspan x="0" y="0">Source </tspan></text>
            <g id="Group_836" data-name="Group 836" transform="translate(170.312 79.916)">
              <path id="Union_58" data-name="Union 58" d="M4.98,53.787A4.986,4.986,0,0,1,0,48.807V22.247a4.986,4.986,0,0,1,4.979-4.98H34.86a4.986,4.986,0,0,1,4.981,4.98v26.56a4.986,4.986,0,0,1-4.981,4.98Zm25.731-3.32H34.86a1.663,1.663,0,0,0,1.661-1.66v-2.49h-5.81Zm-9.13,0h5.81V46.317h-5.81Zm-9.13,0h5.811V46.317H12.45Zm-9.129-1.66a1.663,1.663,0,0,0,1.659,1.66H9.131V46.317H3.321ZM30.711,43h5.81v-4.15h-5.81Zm-9.13,0h5.81v-4.15h-5.81Zm-9.13,0h5.811v-4.15H12.45ZM3.321,43h5.81v-4.15H3.321Zm27.39-7.47h5.81v-4.15h-5.81Zm-9.13,0h5.81v-4.15h-5.81Zm-9.13,0h5.811v-4.15H12.45Zm-9.129,0h5.81v-4.15H3.321Zm38.11,11.52h0V36.573c.262,0,.508.005.757.005.4,0,.824,0,1.344-.015l.326-.006c.428-.01.864-.024,1.333-.045l.1,0c.413-.019.832-.042,1.245-.068l.324-.024c.523-.036.926-.067,1.306-.1l.159-.015c.378-.035.77-.075,1.164-.118l.317-.035c.417-.045.837-.1,1.25-.156l.216-.03c.379-.054.737-.108,1.066-.161l.1-.016.192-.031c.39-.065.785-.135,1.177-.211l.232-.046c.331-.064.659-.134.977-.205l.09-.019.171-.038c.379-.085.741-.172,1.078-.261l.136-.037.1-.026c.355-.1.624-.174.871-.249l.221-.066c.326-.1.646-.208.952-.318l.216-.079c.261-.1.519-.2.765-.3l.167-.068c.262-.111.525-.233.8-.371l.182-.094c.22-.114.436-.232.641-.353.021-.013.044-.026.066-.038l.044-.025c.218-.135.424-.274.63-.426a.222.222,0,0,1,.033-.022l.034-.024,0,9.324c0,2.182-7.62,5.226-20.03,5.226-.258,0-.511.006-.752.018Zm0-12.206V24.38c.26,0,.508.005.757.005.4,0,.824-.005,1.344-.015l.326-.007c.442-.009.891-.025,1.333-.044l.1,0c.413-.019.832-.042,1.245-.068l.324-.025c.387-.026.845-.059,1.306-.1l.159-.015c.378-.035.77-.074,1.164-.117l.317-.035c.416-.045.837-.1,1.25-.156l.216-.031c.378-.053.737-.108,1.066-.161l.1-.015h0l.192-.031c.405-.067.8-.138,1.177-.211l.232-.046c.33-.065.659-.134.977-.205l.09-.019.171-.039c.378-.084.741-.171,1.078-.26l.135-.037.1-.027c.355-.1.624-.173.871-.248l.221-.067c.326-.1.646-.208.952-.317l.216-.079c.261-.1.519-.2.765-.3l.167-.068c.262-.111.525-.233.8-.371l.182-.094c.224-.115.439-.234.641-.353l.066-.039.044-.025c.218-.134.424-.274.63-.426.01-.008.022-.015.033-.022l.034-.023,0,9.324c0,2.182-7.62,5.226-20.03,5.226-.255,0-.509,0-.752,0Zm0-12.2V20.657a4.985,4.985,0,0,0-4.98-4.98h-14.3V8.1c.01.008.021.015.033.022a.23.23,0,0,1,.033.023c.194.144.406.287.631.426.017.011.036.021.053.031l.057.033c.2.112.411.231.641.348l.182.094c.251.125.522.25.8.371l.167.068c.257.107.515.208.766.3l.214.079c.312.11.632.217.953.317l.22.067c.294.088.586.171.871.248l.059.016c.059.016.116.032.174.047.368.1.73.183,1.077.261l.174.038.087.019c.324.072.652.142.977.207l.232.045c.375.072.771.142,1.177.21l.168.027h0l.122.019c.393.063.742.115,1.066.161l.218.027c.421.056.842.108,1.251.156l.316.035c.391.043.783.082,1.164.117l.159.015c.4.035.823.067,1.307.1l.325.021c.413.026.833.049,1.246.068l.1.005c.426.019.874.033,1.333.044l.326.007c.488.01.928.015,1.344.015s.856,0,1.344-.015l.326-.007c.436-.009.884-.025,1.333-.044l.1-.005c.413-.018.832-.041,1.245-.068l.324-.028c.5-.035.916-.066,1.306-.1l.159-.015c.375-.035.756-.072,1.164-.117l.317-.035c.431-.047.851-.1,1.25-.155l.216-.031c.358-.051.717-.1,1.066-.161l.083-.013.21-.034c.4-.066.8-.137,1.177-.21l.232-.046c.336-.067.665-.136.977-.206l.09-.019.171-.038c.368-.081.731-.169,1.078-.261l.147-.039.085-.023c.266-.073.573-.158.871-.249l.221-.066c.34-.107.652-.211.952-.317l.216-.079c.264-.1.522-.2.765-.3l.167-.068c.266-.114.529-.234.8-.37l.182-.094c.209-.1.425-.221.641-.348.019-.012.04-.024.061-.035l.049-.029c.218-.135.424-.274.63-.426.01-.008.022-.015.033-.022l.034-.023,0,9.324c0,2.181-7.62,5.225-20.03,5.225C41.934,22.643,41.68,22.642,41.431,22.639ZM28.022,8.92A16.194,16.194,0,0,1,23.73,7.26c-1.045-.644-1.574-1.328-1.574-2.034s.529-1.39,1.574-2.034A16.19,16.19,0,0,1,28.022,1.53,58.708,58.708,0,0,1,42.186,0,58.72,58.72,0,0,1,56.35,1.53a16.2,16.2,0,0,1,4.292,1.661c1.045.645,1.575,1.329,1.575,2.034s-.53,1.39-1.575,2.034A16.207,16.207,0,0,1,56.35,8.92a58.726,58.726,0,0,1-14.164,1.53A58.72,58.72,0,0,1,28.022,8.92Z" transform="translate(236.687 680.566)" fill="#fff"/>
            </g>
          </g>
        </g>
      </g>
    </g>
  </g>
</svg>
