<svg xmlns="http://www.w3.org/2000/svg" width="163.503" height="163.503" viewBox="0 0 163.503 163.503">
  <g id="Group_877" data-name="Group 877" transform="translate(-844 -1498.748)">
    <g id="Group_858" data-name="Group 858" transform="translate(0 779)">
      <g id="Group_857" data-name="Group 857">
        <circle id="Ellipse_133" data-name="Ellipse 133" cx="81.751" cy="81.751" r="81.751" transform="translate(844 719.748)" fill="#fcc306"/>
        <text id="Target" transform="translate(899 850)" fill="#fff" font-size="18" font-family="HelveticaNeue-Bold, Helvetica Neue" font-weight="700"><tspan x="0" y="0">Target</tspan></text>
        <path id="Union_61" data-name="Union 61" d="M-8566.07-1820.509a13.289,13.289,0,0,1-4.241-2.86,13.293,13.293,0,0,1-2.86-4.241,13.265,13.265,0,0,1-1.049-5.194,13.266,13.266,0,0,1,1.049-5.193,13.3,13.3,0,0,1,2.86-4.241,13.289,13.289,0,0,1,4.241-2.86,13.266,13.266,0,0,1,5.193-1.048,13.282,13.282,0,0,1,5.2,1.048,13.317,13.317,0,0,1,4.24,2.86,13.3,13.3,0,0,1,2.859,4.241,13.264,13.264,0,0,1,1.047,5.193,13.264,13.264,0,0,1-1.047,5.194,13.3,13.3,0,0,1-2.859,4.241,13.317,13.317,0,0,1-4.24,2.86,13.266,13.266,0,0,1-5.2,1.049A13.256,13.256,0,0,1-8566.07-1820.509Zm.418-4.221h10.295v-2.941h-10.295Zm4.047-13.082v7.345a.517.517,0,0,0,.516.516h1.029a.516.516,0,0,0,.514-.516v-7.346l2.023,1.773a.522.522,0,0,0,.341.127.521.521,0,0,0,.388-.174l.676-.774a.515.515,0,0,0,.129-.373.506.506,0,0,0-.176-.354l-4.068-3.562a.514.514,0,0,0-.341-.127.513.513,0,0,0-.339.127l-4.072,3.563a.516.516,0,0,0-.174.354.512.512,0,0,0,.127.375l.679.772a.518.518,0,0,0,.388.174.512.512,0,0,0,.338-.127l2.022-1.772h0Zm-41.395,8.14v-11.219c.012.01.026.018.04.028v0h0a.425.425,0,0,1,.039.026c.227.169.481.342.758.512l.063.037a.7.7,0,0,1,.07.041c.269.156.521.294.771.423l.219.114c.317.156.644.307.969.447l.2.081c.309.128.619.249.921.359l.261.1c.365.13.75.259,1.145.382l.266.079c.344.1.7.2,1.049.3l.111.031.01,0c.053.015.105.03.16.043.408.106.844.211,1.295.314l.182.04.134.029c.385.087.78.17,1.177.248l.279.055c.456.088.934.172,1.417.253l.226.037h.01l.045.007.071.012c.429.069.86.133,1.282.193l.265.034c.534.071,1.026.131,1.507.186l.381.042c.447.05.918.1,1.4.142l.19.017c.459.04.959.078,1.572.121l.394.026c.53.034,1.021.061,1.5.082l.124.006c.5.021,1.021.038,1.606.052l.391.009c.628.013,1.143.018,1.619.018.455,0,.94-.005,1.529-.016a16.9,16.9,0,0,0-.3,3.176,16.694,16.694,0,0,0,2.833,9.329c-1.333.063-2.7.093-4.065.093C-8593.826-1823.381-8603-1827.046-8603-1829.672Zm0-14.68v-11.218a.319.319,0,0,0,.041.027l0,0a.331.331,0,0,1,.037.024c.23.173.486.346.758.513l.063.037c.024.013.049.026.07.04.265.155.517.294.771.424l.219.114c.3.147.615.293.969.447l.2.081c.307.127.617.248.921.36l.261.1c.367.131.753.259,1.145.381l.266.081c.351.1.7.205,1.049.3l.067.019c.064.018.138.039.214.057.426.11.861.216,1.295.315l.161.035.027.005.127.029c.424.094.809.175,1.177.248l.279.055c.431.082.893.165,1.417.253l.214.035.014,0,.124.02c.46.074.88.138,1.282.194l.265.033c.486.065.993.128,1.507.187l.381.042c.469.052.941.1,1.4.141l.19.018c.455.04.953.078,1.572.121l.394.026c.473.03.964.056,1.5.08l.124.007c.583.023,1.106.041,1.606.052l.391.009c.581.013,1.11.018,1.619.018s1.039-.005,1.619-.018l.393-.009c.5-.011,1.026-.027,1.605-.052l.123-.007c.535-.024,1.025-.051,1.5-.08l.391-.03c.506-.035,1.046-.074,1.574-.121l.189-.018c.5-.046.959-.092,1.4-.14l.381-.042c.512-.056,1.018-.12,1.5-.187l.261-.037c.435-.062.864-.126,1.284-.194l.115-.019c.078-.011.158-.024.236-.038.508-.085.972-.167,1.418-.252l.278-.056c.4-.08.8-.163,1.176-.248l.075-.017.238-.052c.473-.1.9-.209,1.3-.314l.175-.048.105-.029c.411-.112.743-.207,1.048-.3l.265-.079c.42-.132.795-.257,1.147-.382l.26-.1c.338-.125.641-.244.92-.36l.2-.081c.32-.138.639-.284.967-.448l.221-.112c.27-.14.53-.283.771-.426.025-.015.051-.031.078-.045l.017-.01.038-.022c.266-.164.521-.337.758-.512a.406.406,0,0,1,.041-.027l0,0c.012-.008.025-.017.035-.025v7.146a16.7,16.7,0,0,0-6.109-1.147,16.769,16.769,0,0,0-5.309.857,16.717,16.717,0,0,0-4.607,2.386,16.9,16.9,0,0,0-3.633,3.638,16.855,16.855,0,0,0-2.379,4.612c-.688.016-1.389.024-2.08.024C-8593.826-1838.06-8603-1841.725-8603-1844.351Zm14.043-9a48.652,48.652,0,0,1-7.588-1.547,19.2,19.2,0,0,1-4.789-2.04c-1.09-.711-1.666-1.433-1.666-2.089v-11.213c.012.01.026.018.04.027s.027.018.04.026c.23.173.484.345.758.513l.065.038,0,0c.021.012.043.024.063.037.291.165.535.3.771.419l.219.113c.318.158.645.308.969.448l.2.082c.311.129.621.25.921.359l.261.1c.384.136.769.265,1.145.381l.266.08c.35.1.7.205,1.049.3l.08.022.2.055c.416.108.854.213,1.295.313.109.026.221.049.315.07.388.086.782.169,1.177.248l.279.055c.434.084.9.166,1.417.253l.235.038.042.006.074.013c.47.075.89.139,1.282.193l.265.034c.485.064.991.127,1.507.186l.381.042c.459.051.93.1,1.4.141l.19.018c.459.04.959.078,1.572.121l.394.025c.479.031.985.058,1.5.083l.124.006c.5.021,1.024.038,1.606.052l.391.009c.628.012,1.144.018,1.619.018s.992-.005,1.619-.018l.393-.009c.5-.011,1.027-.028,1.605-.052l.123-.006c.518-.024,1.023-.052,1.5-.083l.391-.034c.568-.039,1.083-.078,1.574-.121l.189-.018c.451-.042.911-.088,1.4-.14l.381-.043c.489-.052,1-.115,1.5-.186l.261-.037c.478-.068.9-.131,1.284-.195l.111-.017.24-.039c.476-.078.952-.163,1.418-.253l.278-.055c.388-.077.784-.161,1.176-.248l.119-.026h0l.192-.043c.43-.094.865-.2,1.3-.314l.166-.044.009,0,.015,0,.091-.024c.356-.1.706-.195,1.048-.3l.265-.08c.42-.131.795-.256,1.147-.381l.26-.1c.315-.116.625-.237.92-.36l.2-.083c.32-.137.639-.283.967-.447l.221-.112c.252-.125.512-.266.771-.42.025-.016.051-.031.078-.046l.006,0,.049-.028c.264-.163.52-.336.758-.512a.429.429,0,0,1,.041-.028l0,0,.035-.024,0,11.225c0,.656-.575,1.378-1.667,2.089a19.19,19.19,0,0,1-4.788,2.04,48.652,48.652,0,0,1-7.588,1.547,78.42,78.42,0,0,1-10.072.615A78.42,78.42,0,0,1-8588.957-1853.354Zm-6.978-15.907a19.478,19.478,0,0,1-5.169-2c-1.258-.775-1.895-1.6-1.895-2.448s.637-1.673,1.895-2.449a19.481,19.481,0,0,1,5.169-2,70.668,70.668,0,0,1,17.052-1.843,70.682,70.682,0,0,1,17.053,1.843,19.5,19.5,0,0,1,5.168,2c1.258.776,1.895,1.6,1.895,2.449s-.637,1.673-1.895,2.448a19.456,19.456,0,0,1-5.168,2,70.738,70.738,0,0,1-17.053,1.843A70.724,70.724,0,0,1-8595.935-1869.261Z" transform="translate(9501 2633.73)" fill="#fff"/>
      </g>
    </g>
  </g>
</svg>
