<svg id="accept" xmlns="http://www.w3.org/2000/svg" width="63.492" height="66.271" viewBox="0 0 63.492 66.271">
  <path id="Path_363" data-name="Path 363" d="M47.368,30.246c.11,0,.22,0,.33,0h.028q.928.017,1.839.117V7.819A7.828,7.828,0,0,0,41.746,0H7.82A7.828,7.828,0,0,0,0,7.819V52.794a7.828,7.828,0,0,0,7.819,7.82H30.47a19.894,19.894,0,0,1,16.9-30.368ZM28.043,12.767H39.63a1.942,1.942,0,1,1,0,3.883H28.043a1.942,1.942,0,1,1,0-3.883Zm0,7.767H39.63a1.942,1.942,0,1,1,0,3.883H28.043a1.942,1.942,0,1,1,0-3.883Zm-6.52,27.313H9.935a1.942,1.942,0,0,1,0-3.883H21.523a1.942,1.942,0,0,1,0,3.883Zm0-7.9H9.935a1.942,1.942,0,0,1,0-3.883H21.523a1.942,1.942,0,0,1,0,3.883Zm0-7.767H9.935a1.942,1.942,0,0,1,0-3.883H21.523a1.942,1.942,0,0,1,0,3.883Zm0-7.767H9.935a1.942,1.942,0,1,1,0-3.883H21.523a1.942,1.942,0,0,1,0,3.883Zm0-7.767H9.935a1.942,1.942,0,1,1,0-3.883H21.523a1.942,1.942,0,0,1,0,3.883ZM26.1,30.242A1.942,1.942,0,0,1,28.043,28.3h5.581a1.942,1.942,0,0,1,0,3.883H28.043A1.942,1.942,0,0,1,26.1,30.242Zm0,0" fill="#fff"/>
  <path id="Path_364" data-name="Path 364" d="M269.008,267.5a16.021,16.021,0,0,0-11.207-4.819h-.028c-.087,0-.175,0-.262,0a16.131,16.131,0,1,0,11.5,4.823Zm-4.608,8.689-6.157,7.676a1.941,1.941,0,0,1-2.654.357L251,280.9a1.941,1.941,0,0,1,2.278-3.144l3.1,2.243,5-6.234a1.941,1.941,0,1,1,3.029,2.43Zm0,0" transform="translate(-210.143 -228.68)" fill="#fff"/>
</svg>
