<svg xmlns="http://www.w3.org/2000/svg" width="22.967" height="22.969" viewBox="0 0 22.967 22.969">
  <g id="broken-link" transform="translate(-0.003 -0.001)">
    <path id="Path_328" data-name="Path 328" d="M33.132,1.589a5.439,5.439,0,0,0-7.682,0L21.609,5.43a.836.836,0,1,0,1.182,1.182L26.632,2.77A3.761,3.761,0,0,1,31.95,8.089l-5.022,5.023a3.766,3.766,0,0,1-5.319,0,.836.836,0,1,0-1.182,1.182,5.438,5.438,0,0,0,7.682,0l5.023-5.023a5.445,5.445,0,0,0,0-7.682Z" transform="translate(-11.747 0)" fill="#707070"/>
    <path id="Path_329" data-name="Path 329" d="M11.339,27.243l-3.25,3.25A3.761,3.761,0,1,1,2.77,25.175L7.5,20.447a3.774,3.774,0,0,1,5.318,0A.836.836,0,1,0,14,19.265a5.439,5.439,0,0,0-7.682,0L1.588,23.993A5.432,5.432,0,0,0,9.27,31.675l3.25-3.25a.835.835,0,0,0-1.181-1.182Z" transform="translate(0 -10.29)" fill="#707070"/>
    <path id="Path_330" data-name="Path 330" d="M32.839,44.007a.836.836,0,0,0-.836.836V47.35a.836.836,0,1,0,1.671,0V44.843A.835.835,0,0,0,32.839,44.007Z" transform="translate(-18.629 -25.618)" fill="#707070"/>
    <path id="Path_331" data-name="Path 331" d="M39.188,42.252a.836.836,0,0,0-1.182,1.182l1.773,1.773a.836.836,0,0,0,1.182-1.182Z" transform="translate(-21.981 -24.454)" fill="#707070"/>
    <path id="Path_332" data-name="Path 332" d="M41.311,36.007H38.8a.836.836,0,1,0,0,1.671h2.507a.836.836,0,0,0,0-1.671Z" transform="translate(-22.101 -20.961)" fill="#707070"/>
    <path id="Path_333" data-name="Path 333" d="M16.839,7.185a.836.836,0,0,0,.836-.836V3.843a.836.836,0,1,0-1.671,0V6.35A.836.836,0,0,0,16.839,7.185Z" transform="translate(-9.314 -1.75)" fill="#707070"/>
    <path id="Path_334" data-name="Path 334" d="M7.779,9.964A.836.836,0,0,0,8.96,8.782L7.188,7.009A.836.836,0,0,0,6.006,8.191Z" transform="translate(-3.352 -3.937)" fill="#707070"/>
    <path id="Path_335" data-name="Path 335" d="M4.8,18.678H7.311a.836.836,0,0,0,0-1.671H4.8a.836.836,0,0,0,0,1.671Z" transform="translate(-2.308 -9.9)" fill="#707070"/>
  </g>
</svg>
