<svg id="portfolio" xmlns="http://www.w3.org/2000/svg" width="69.237" height="63.645" viewBox="0 0 69.237 63.645">
  <path id="Path_257" data-name="Path 257" d="M211,240h11.129v3.71H211Zm0,0" transform="translate(-181.946 -205.751)" fill="#fff"/>
  <path id="Path_258" data-name="Path 258" d="M56.171,105.36H44.761v2.177a2.106,2.106,0,0,1-2.028,2.177H26.5a2.106,2.106,0,0,1-2.028-2.177V105.36H13.066A6.132,6.132,0,0,1,7.293,100.9L0,77.41v47.542a6.327,6.327,0,0,0,6.085,6.531H63.152a6.327,6.327,0,0,0,6.085-6.531V77.412L61.943,100.9A6.131,6.131,0,0,1,56.171,105.36Zm0,0" transform="translate(0 -67.838)" fill="#fff"/>
  <path id="Path_259" data-name="Path 259" d="M65.427,0H49.044C45.657,0,42.9,2.5,42.9,5.564V7.419H25.809l7.724,20.99a2.041,2.041,0,0,0,1.944,1.268H47V27.822a1.958,1.958,0,0,1,2.048-1.855H65.427a1.958,1.958,0,0,1,2.048,1.855v1.855H79a2.041,2.041,0,0,0,1.944-1.268l7.724-20.99H71.571V5.564C71.571,2.5,68.815,0,65.427,0ZM47,7.419V5.564A1.96,1.96,0,0,1,49.044,3.71H65.427a1.96,1.96,0,0,1,2.048,1.855V7.419Zm0,0" transform="translate(-22.617)" fill="#fff"/>
</svg>
