<svg xmlns="http://www.w3.org/2000/svg" width="28.596" height="27.488" viewBox="0 0 28.596 27.488">
  <g id="business-affiliate-network" transform="translate(0 -0.911)">
    <g id="Layer_1_110_" transform="translate(0 0.911)">
      <g id="Group_261" data-name="Group 261">
        <path id="Path_252" data-name="Path 252" d="M13.337,12.426,11.6,10.782a2.549,2.549,0,0,0,.328-1.235A2.6,2.6,0,1,0,10.71,11.73l1.737,1.642A5.908,5.908,0,0,1,13.337,12.426Z" transform="translate(-2.649 -3.283)" fill="#fff"/>
        <path id="Path_253" data-name="Path 253" d="M28.943,9.848l2.311-3.89A2.551,2.551,0,1,0,30.133,5.3l-2.3,3.879A5.772,5.772,0,0,1,28.943,9.848Z" transform="translate(-10.897 -0.911)" fill="#fff"/>
        <path id="Path_254" data-name="Path 254" d="M39.06,20.952a2.577,2.577,0,0,0-2.414,1.688l-3.211-.317c0,.024,0,.047,0,.071a5.913,5.913,0,0,1-.13,1.222l3.21.317a2.576,2.576,0,1,0,2.541-2.982Z" transform="translate(-13.043 -8.759)" fill="#fff"/>
        <path id="Path_255" data-name="Path 255" d="M26.486,35.605l-.718-3.137a5.879,5.879,0,0,1-1.267.293L25.22,35.9a2.572,2.572,0,1,0,1.266-.293Z" transform="translate(-9.33 -13.268)" fill="#fff"/>
        <path id="Path_256" data-name="Path 256" d="M8.735,25.37l-4,1.339a2.575,2.575,0,1,0,.422,1.407c0-.06-.013-.114-.018-.173L9.153,26.6A5.891,5.891,0,0,1,8.735,25.37Z" transform="translate(0 -10.488)" fill="#fff"/>
        <circle id="Ellipse_34" data-name="Ellipse 34" cx="4.424" cy="4.424" r="4.424" transform="translate(10.075 9.212)" fill="#fff"/>
      </g>
    </g>
  </g>
</svg>
