<svg xmlns="http://www.w3.org/2000/svg" width="21.473" height="21.473" viewBox="0 0 21.473 21.473">
  <g id="Group_321" data-name="Group 321" transform="translate(-65.264 -222.104)">
    <g id="dashboard" transform="translate(65.264 222.104)">
      <path id="Path_261" data-name="Path 261" d="M8.276,0H1.566A1.567,1.567,0,0,0,0,1.566V5.592A1.567,1.567,0,0,0,1.566,7.158h6.71A1.567,1.567,0,0,0,9.842,5.592V1.566A1.567,1.567,0,0,0,8.276,0Zm0,0" fill="#fff"/>
      <path id="Path_262" data-name="Path 262" d="M8.276,213.332H1.566A1.567,1.567,0,0,0,0,214.9v9.394a1.567,1.567,0,0,0,1.566,1.566h6.71a1.567,1.567,0,0,0,1.566-1.566V214.9A1.567,1.567,0,0,0,8.276,213.332Zm0,0" transform="translate(0 -204.385)" fill="#fff"/>
      <path id="Path_263" data-name="Path 263" d="M285.608,341.332H278.9a1.567,1.567,0,0,0-1.566,1.566v4.026a1.567,1.567,0,0,0,1.566,1.566h6.71a1.567,1.567,0,0,0,1.566-1.566V342.9A1.567,1.567,0,0,0,285.608,341.332Zm0,0" transform="translate(-265.701 -327.017)" fill="#fff"/>
      <path id="Path_264" data-name="Path 264" d="M285.608,0H278.9a1.567,1.567,0,0,0-1.566,1.566V10.96a1.567,1.567,0,0,0,1.566,1.566h6.71a1.567,1.567,0,0,0,1.566-1.566V1.566A1.567,1.567,0,0,0,285.608,0Zm0,0" transform="translate(-265.701)" fill="#fff"/>
    </g>
  </g>
</svg>
