<svg xmlns="http://www.w3.org/2000/svg" width="75" height="72.093" viewBox="0 0 75 72.093">
  <g id="business-affiliate-network" transform="translate(0 -0.911)">
    <g id="Layer_1_110_" transform="translate(0 0.911)">
      <g id="Group_261" data-name="Group 261">
        <path id="Path_252" data-name="Path 252" d="M24,21.282,19.441,16.97a6.686,6.686,0,0,0,.86-3.238,6.812,6.812,0,1,0-3.188,5.724l4.556,4.307A15.5,15.5,0,0,1,24,21.282Z" transform="translate(4.03 2.697)" fill="#fff"/>
        <path id="Path_253" data-name="Path 253" d="M30.751,24.351l6.062-10.2a6.691,6.691,0,1,0-2.941-1.717L27.829,22.605A15.14,15.14,0,0,1,30.751,24.351Z" transform="translate(16.579 -0.911)" fill="#fff"/>
        <path id="Path_254" data-name="Path 254" d="M48.394,20.952a6.76,6.76,0,0,0-6.332,4.428l-8.422-.831c0,.064.01.124.01.187a15.509,15.509,0,0,1-.34,3.206l8.419.831a6.756,6.756,0,1,0,6.665-7.821Z" transform="translate(19.844 11.028)" fill="#fff"/>
        <path id="Path_255" data-name="Path 255" d="M30.8,40.7l-1.883-8.228a15.418,15.418,0,0,1-3.322.768l1.886,8.229A6.746,6.746,0,1,0,30.8,40.7Z" transform="translate(14.195 17.889)" fill="#fff"/>
        <path id="Path_256" data-name="Path 256" d="M22.91,25.37,12.426,28.882a6.754,6.754,0,1,0,1.107,3.691c0-.156-.034-.3-.046-.453L24,28.6A15.451,15.451,0,0,1,22.91,25.37Z" transform="translate(0 13.66)" fill="#fff"/>
        <circle id="Ellipse_34" data-name="Ellipse 34" cx="11.603" cy="11.603" r="11.603" transform="translate(26.424 24.161)" fill="#fff"/>
      </g>
    </g>
  </g>
</svg>
