<svg id="dashboard" xmlns="http://www.w3.org/2000/svg" width="27.68" height="27.68" viewBox="0 0 27.68 27.68">
  <path id="Path_261" data-name="Path 261" d="M10.668,0H2.018A2.02,2.02,0,0,0,0,2.018v5.19A2.021,2.021,0,0,0,2.018,9.227h8.65a2.021,2.021,0,0,0,2.018-2.018V2.018A2.021,2.021,0,0,0,10.668,0Zm0,0" fill="#052e5d"/>
  <path id="Path_262" data-name="Path 262" d="M10.668,213.332H2.018A2.02,2.02,0,0,0,0,215.35v12.11a2.02,2.02,0,0,0,2.018,2.018h8.65a2.02,2.02,0,0,0,2.018-2.018V215.35A2.021,2.021,0,0,0,10.668,213.332Zm0,0" transform="translate(0 -201.799)" fill="#052e5d"/>
  <path id="Path_263" data-name="Path 263" d="M288,341.332h-8.65a2.021,2.021,0,0,0-2.018,2.018v5.19a2.021,2.021,0,0,0,2.018,2.018H288a2.02,2.02,0,0,0,2.018-2.018v-5.19A2.021,2.021,0,0,0,288,341.332Zm0,0" transform="translate(-262.339 -322.879)" fill="#052e5d"/>
  <path id="Path_264" data-name="Path 264" d="M288,0h-8.65a2.021,2.021,0,0,0-2.018,2.018v12.11a2.021,2.021,0,0,0,2.018,2.018H288a2.021,2.021,0,0,0,2.018-2.018V2.018A2.02,2.02,0,0,0,288,0Zm0,0" transform="translate(-262.339)" fill="#052e5d"/>
</svg>
