<svg xmlns="http://www.w3.org/2000/svg" width="24.119" height="21.104" viewBox="0 0 24.119 21.104">
  <g id="folder-2" transform="translate(0 -24)">
    <path id="Path_221" data-name="Path 221" d="M22.03,26.01a2.006,2.006,0,0,1,1.672.9l1.413,2.12H36.1V25a1,1,0,0,0-1-1H17a1,1,0,0,0-1,1v1Z" transform="translate(-13.99)" fill="#fff"/>
    <path id="Path_222" data-name="Path 222" d="M23.114,51.015H10.588L8.876,48.448A1,1,0,0,0,8.04,48H1a1,1,0,0,0-1,1v16.08a1,1,0,0,0,1,1H23.114a1,1,0,0,0,1-1V52.02A1,1,0,0,0,23.114,51.015ZM14.07,62.07H4.02V60.06H14.07Zm6.03-4.02H4.02V56.04H20.1Z" transform="translate(0 -20.985)" fill="#fff"/>
  </g>
</svg>
