<svg xmlns="http://www.w3.org/2000/svg" width="22.916" height="22.915" viewBox="0 0 22.916 22.915">
  <g id="election-event-on-a-calendar-with-star-symbol" transform="translate(-0.977)">
    <g id="Group_234" data-name="Group 234" transform="translate(0.977)">
      <path id="Path_219" data-name="Path 219" d="M40.2,55.866l-.324,1.922a.7.7,0,0,0,1.016.739l1.728-.9,1.728.9a.7.7,0,0,0,1.016-.739l-.323-1.922L46.436,54.5a.7.7,0,0,0-.388-1.195l-1.928-.286-.869-1.746a.7.7,0,0,0-1.256,0l-.868,1.746-1.928.286A.7.7,0,0,0,38.81,54.5Z" transform="translate(-31.166 -41.114)" fill="#fff"/>
      <path id="Path_220" data-name="Path 220" d="M21.58,2.436H19.144V1.106A1.115,1.115,0,0,0,18.02,0h-.178a1.114,1.114,0,0,0-1.123,1.106V2.436h-8.6V1.106A1.114,1.114,0,0,0,7,0H6.82A1.114,1.114,0,0,0,5.7,1.106V2.436H3.289A2.3,2.3,0,0,0,.977,4.712V20.64a2.3,2.3,0,0,0,2.312,2.275H21.581a2.3,2.3,0,0,0,2.312-2.275V4.712A2.3,2.3,0,0,0,21.58,2.436Zm-.3,17.907H3.59V7.944H21.279Z" transform="translate(-0.977)" fill="#fff"/>
    </g>
  </g>
</svg>
