<svg xmlns="http://www.w3.org/2000/svg" width="23.829" height="16.247" viewBox="0 0 23.829 16.247">
  <g id="visibility-button" transform="translate(0 -89.25)">
    <g id="visibility" transform="translate(0 89.25)">
      <path id="Path_224" data-name="Path 224" d="M11.914,89.25A12.761,12.761,0,0,0,0,97.373a12.8,12.8,0,0,0,23.829,0A12.761,12.761,0,0,0,11.914,89.25Zm0,13.539a5.416,5.416,0,1,1,5.416-5.416A5.363,5.363,0,0,1,11.914,102.789Zm0-8.665a3.249,3.249,0,1,0,3.249,3.249A3.191,3.191,0,0,0,11.914,94.124Z" transform="translate(0 -89.25)" fill="#fff"/>
    </g>
  </g>
</svg>
