<svg id="database" xmlns="http://www.w3.org/2000/svg" width="66.641" height="66.641" viewBox="0 0 66.641 66.641">
  <path id="Path_268" data-name="Path 268" d="M45.917,43.61q-.478.013-.956.021l-.184,0q-.56.008-1.118.008c-.373,0-.747,0-1.122-.008l-.151,0c-.331-.006-.661-.012-.992-.022l-.069,0C33.717,43.382,26.177,42.057,22,39.7v7.1c2.375,2.395,10.665,4.619,21.658,4.619,9.672,0,17.245-1.723,20.548-3.766V40.265c-4.317,2-11.221,3.132-18.185,3.341Z" transform="translate(2.435 4.394)" fill="#1656a2"/>
  <path id="Path_269" data-name="Path 269" d="M22,30.7V37.78c.058.058.109.117.174.174.049.044.1.089.15.133,2.786,2.276,11,4.331,21.334,4.331,9.494,0,17.2-1.736,20.548-3.782v-7.38c-4.81,2.221-12.831,3.388-20.548,3.388C35.314,34.643,26.61,33.281,22,30.7Z" transform="translate(2.435 3.397)" fill="#1656a2"/>
  <path id="Path_270" data-name="Path 270" d="M22,48.7v4.777a1.048,1.048,0,0,0,.111.469c1.163,4.8,11.342,7.306,20.992,7.306,9.632,0,19.788-2.5,20.986-7.278a1.108,1.108,0,0,0,.117-.5V49.265c-4.8,2.228-12.817,3.378-20.548,3.378C35.3,52.643,26.6,51.3,22,48.7Z" transform="translate(2.435 5.39)" fill="#1656a2"/>
  <path id="Path_271" data-name="Path 271" d="M43.1,18.25c-9.652,0-19.87,2.557-21,7.313a1.094,1.094,0,0,0-.107.462v3.137C24.391,31.555,32.861,33.8,43.658,33.8c9.494,0,17.2-1.736,20.548-3.782V26.025a1.052,1.052,0,0,0-.1-.449C62.991,20.811,52.764,18.25,43.1,18.25Z" transform="translate(2.435 2.02)" fill="#1656a2"/>
  <path id="Path_272" data-name="Path 272" d="M61.523,0H5.118A5.124,5.124,0,0,0,0,5.118V18.205a5.012,5.012,0,0,0,.927,2.9H27.6c4.414-2,11.035-3.054,17.43-3.054S58.046,19.1,62.46,21.1h3.252a5,5,0,0,0,.929-2.9V5.118A5.124,5.124,0,0,0,61.523,0ZM11.662,16.66a5,5,0,1,1,5-5A5,5,0,0,1,11.662,16.66Zm26.1-5.553A1.111,1.111,0,1,1,38.874,10,1.111,1.111,0,0,1,37.763,11.107Zm2.221,3.332A1.111,1.111,0,1,1,41.1,13.328,1.111,1.111,0,0,1,39.984,14.439Zm2.221-3.332A1.111,1.111,0,1,1,43.316,10,1.111,1.111,0,0,1,42.206,11.107Zm2.221,3.332a1.111,1.111,0,1,1,1.111-1.111A1.111,1.111,0,0,1,44.427,14.439Zm2.221-3.332A1.111,1.111,0,1,1,47.759,10,1.111,1.111,0,0,1,46.648,11.107Zm2.221,3.332a1.111,1.111,0,1,1,1.111-1.111A1.111,1.111,0,0,1,48.87,14.439Zm2.221-3.332A1.111,1.111,0,1,1,52.2,10,1.111,1.111,0,0,1,51.091,11.107Zm2.221,3.332a1.111,1.111,0,1,1,1.111-1.111A1.111,1.111,0,0,1,53.313,14.439Zm2.221-3.332A1.111,1.111,0,1,1,56.645,10,1.111,1.111,0,0,1,55.534,11.107Zm2.221,3.332a1.111,1.111,0,1,1,1.111-1.111A1.111,1.111,0,0,1,57.755,14.439Z" fill="#1656a2"/>
  <path id="Path_273" data-name="Path 273" d="M22.214,39.882V25.72a1.094,1.094,0,0,1,.107-.462c.405-1.712,2-3.133,4.311-4.258H.927A5.011,5.011,0,0,0,0,23.9V36.984a5.012,5.012,0,0,0,.927,2.9ZM11.662,25.443a5,5,0,1,1-5,5A5,5,0,0,1,11.662,25.443Z" transform="translate(0 2.324)" fill="#1656a2"/>
  <path id="Path_274" data-name="Path 274" d="M25.232,58.4a6.085,6.085,0,0,1-2.908-3.5,1.048,1.048,0,0,1-.111-.469V40H.927A5.011,5.011,0,0,0,0,42.9V55.984A5.118,5.118,0,0,0,5.118,61.1H24.556A1.464,1.464,0,0,0,25.232,58.4Zm-13.57-3.964a5,5,0,1,1,5-5A5,5,0,0,1,11.662,54.439Z" transform="translate(0 4.427)" fill="#1656a2"/>
</svg>
