<svg xmlns="http://www.w3.org/2000/svg" width="20.611" height="25.377" viewBox="0 0 20.611 25.377">
  <g id="delete" transform="translate(0.003 0.001)">
    <path id="Path_337" data-name="Path 337" d="M222.993,154.7a.594.594,0,0,0-.594.594V166.53a.594.594,0,0,0,1.189,0V155.3A.594.594,0,0,0,222.993,154.7Zm0,0" transform="translate(-209.184 -145.51)" fill="#707070"/>
    <path id="Path_338" data-name="Path 338" d="M104.993,154.7a.594.594,0,0,0-.594.594V166.53a.594.594,0,0,0,1.189,0V155.3A.594.594,0,0,0,104.993,154.7Zm0,0" transform="translate(-98.197 -145.51)" fill="#707070"/>
    <path id="Path_339" data-name="Path 339" d="M1.685,7.554V22.2a3.279,3.279,0,0,0,.872,2.261,2.927,2.927,0,0,0,2.124.918H15.925a2.926,2.926,0,0,0,2.124-.918A3.279,3.279,0,0,0,18.92,22.2V7.554a2.27,2.27,0,0,0-.582-4.465H15.295V2.346A2.334,2.334,0,0,0,12.941,0H7.664A2.335,2.335,0,0,0,5.31,2.346v.743H2.267a2.27,2.27,0,0,0-.582,4.465Zm14.24,16.634H4.68A1.882,1.882,0,0,1,2.873,22.2V7.606H17.731V22.2A1.882,1.882,0,0,1,15.925,24.188ZM6.5,2.346A1.145,1.145,0,0,1,7.664,1.187h5.277a1.145,1.145,0,0,1,1.165,1.159v.743H6.5ZM2.267,4.278h16.07a1.07,1.07,0,1,1,0,2.14H2.267a1.07,1.07,0,0,1,0-2.14Zm0,0" transform="translate(0 0)" fill="#707070"/>
    <path id="Path_340" data-name="Path 340" d="M163.993,154.7a.594.594,0,0,0-.594.594V166.53a.594.594,0,0,0,1.189,0V155.3A.594.594,0,0,0,163.993,154.7Zm0,0" transform="translate(-153.69 -145.51)" fill="#707070"/>
  </g>
</svg>
