<svg class ="source_logos" xmlns="http://www.w3.org/2000/svg" width="55.088" height="66.106" viewBox="0 0 55.088 66.106">
						<g id="text-file" transform="translate(-36.546)">
							<g id="Group_273" data-name="Group 273" transform="translate(36.546)">
								<path id="Path_275" data-name="Path 275" d="M68.222,27.544a4.114,4.114,0,0,1-4.132-4.131V0H40.677a3.984,3.984,0,0,0-2.926,1.2,3.983,3.983,0,0,0-1.205,2.927V61.975a4.114,4.114,0,0,0,4.132,4.132H87.5a4.114,4.114,0,0,0,4.131-4.132V27.544ZM80.617,53.711a1.324,1.324,0,0,1-1.376,1.376h-30.3a1.325,1.325,0,0,1-1.377-1.376V50.957a1.325,1.325,0,0,1,1.377-1.377h30.3a1.324,1.324,0,0,1,1.376,1.377Zm0-11.018a1.324,1.324,0,0,1-1.376,1.377h-30.3a1.325,1.325,0,0,1-1.377-1.377V39.939a1.325,1.325,0,0,1,1.377-1.376h30.3a1.324,1.324,0,0,1,1.376,1.376Z" transform="translate(-36.546)" fill="#c3cdd8"/>
								<path id="Path_276" data-name="Path 276" d="M274.92,17.08,261.492,3.651a10.459,10.459,0,0,0-5.682-2.8V22.761h21.907A10.456,10.456,0,0,0,274.92,17.08Z" transform="translate(-222.757 -0.725)" fill="#c3cdd8"/>
							</g>
						</g>
					</svg>