<svg id="grid" xmlns="http://www.w3.org/2000/svg" width="55" height="55" viewBox="0 0 55 55">
  <path id="Path_360" data-name="Path 360" d="M144,184h19.643v17.679H144Zm0,0" transform="translate(-126.321 -161.411)" fill="#fff"/>
  <path id="Path_361" data-name="Path 361" d="M0,111.143H55V64H0ZM4.911,78.732a.982.982,0,0,1,0-1.964h10.8V68.911a.982.982,0,0,1,1.964,0v7.857H37.321V68.911a.982.982,0,0,1,1.964,0v7.857h10.8a.982.982,0,0,1,0,1.964h-10.8V96.411h10.8a.982.982,0,0,1,0,1.964h-10.8v7.857a.982.982,0,1,1-1.964,0V98.375H17.679v7.857a.982.982,0,1,1-1.964,0V98.375H4.911a.982.982,0,0,1,0-1.964h10.8V78.732Zm0,0" transform="translate(0 -56.143)" fill="#fff"/>
  <path id="Path_362" data-name="Path 362" d="M55,0H0V5.893H55ZM3.929,3.929H1.964V1.964H3.929Zm3.929,0H5.893V1.964H7.857Zm3.929,0H9.821V1.964h1.964Zm0,0" fill="#fff"/>
</svg>
