<svg xmlns="http://www.w3.org/2000/svg" width="31.68" height="31.68" viewBox="0 0 31.68 31.68">
  <g id="baseline-help-24px" transform="translate(0 0)">
    <path id="Path_19" data-name="Path 19" d="M0,0H31.68V31.68H0Z" fill="none"/>
    <path id="Path_20" data-name="Path 20" d="M15.2,2A13.2,13.2,0,1,0,28.4,15.2,13.2,13.2,0,0,0,15.2,2Zm1.32,22.44H13.88V21.8h2.64Zm2.732-10.23-1.188,1.214A4.494,4.494,0,0,0,16.52,19.16H13.88V18.5a5.313,5.313,0,0,1,1.544-3.736L17.061,13.1a2.581,2.581,0,0,0,.779-1.861,2.64,2.64,0,0,0-5.28,0H9.92a5.28,5.28,0,0,1,10.56,0A4.2,4.2,0,0,1,19.252,14.21Z" transform="translate(0.64 0.64)" fill="#fff"/>
  </g>
</svg>
