<svg xmlns="http://www.w3.org/2000/svg" width="62.852" height="65.492" viewBox="0 0 62.852 65.492">
  <g id="light-bulb" transform="translate(939.426 -8.254)">
    <path id="XMLID_49_" d="M48.691,57.232v1.914a3.035,3.035,0,0,1-2.574,3.005l-.472,1.738a2.164,2.164,0,0,1-2.089,1.6H38.881a2.164,2.164,0,0,1-2.089-1.6l-.458-1.738a3.049,3.049,0,0,1-2.587-3.019V57.218a1.84,1.84,0,0,1,1.846-1.846H46.845A1.861,1.861,0,0,1,48.691,57.232Zm8.665-25.793a16.053,16.053,0,0,1-4.528,11.2,14.8,14.8,0,0,0-3.962,8.032,2.668,2.668,0,0,1-2.641,2.25H36.212a2.642,2.642,0,0,1-2.628-2.237A14.959,14.959,0,0,0,29.6,42.624a16.133,16.133,0,1,1,27.76-11.185Zm-14.311-9.77a1.82,1.82,0,0,0-1.819-1.819A11.655,11.655,0,0,0,29.582,31.493a1.819,1.819,0,0,0,3.638,0,8.014,8.014,0,0,1,8-8A1.812,1.812,0,0,0,43.045,21.669ZM41.225,10.012a1.82,1.82,0,0,0,1.819-1.819V1.819a1.819,1.819,0,0,0-3.638,0V8.193A1.82,1.82,0,0,0,41.225,10.012ZM19.812,31.425a1.82,1.82,0,0,0-1.819-1.819H11.619a1.819,1.819,0,0,0,0,3.638h6.374A1.812,1.812,0,0,0,19.812,31.425Zm51.019-1.819H64.458a1.819,1.819,0,0,0,0,3.638h6.374a1.819,1.819,0,1,0,0-3.638ZM57.652,16.818a1.817,1.817,0,0,0,1.28-.526l4.514-4.514A1.82,1.82,0,1,0,60.873,9.2l-4.514,4.514a1.814,1.814,0,0,0,0,2.574A1.848,1.848,0,0,0,57.652,16.818Zm-34.134-.539a1.815,1.815,0,1,0,2.56-2.574L21.564,9.19a1.82,1.82,0,0,0-2.574,2.574Z" transform="translate(-949.225 8.254)" fill="#52bb5e"/>
  </g>
</svg>
