<svg xmlns="http://www.w3.org/2000/svg" width="21.875" height="21.875" viewBox="0 0 21.875 21.875">
  <g id="nut-icon" transform="translate(-0.002)">
    <g id="Group_236" data-name="Group 236" transform="translate(0.002)">
      <g id="Group_235" data-name="Group 235" transform="translate(0)">
        <circle id="Ellipse_31" data-name="Ellipse 31" cx="1.918" cy="1.918" r="1.918" transform="translate(9.021 9.019)" fill="#fff"/>
        <path id="Path_223" data-name="Path 223" d="M21.434,9.069,18.8,8.575a8.1,8.1,0,0,0-.63-1.525l1.525-2.229a.566.566,0,0,0-.065-.693l-1.88-1.88a.565.565,0,0,0-.692-.065L14.825,3.708a8.147,8.147,0,0,0-1.572-.642L12.762.445A.565.565,0,0,0,12.226,0H9.567a.567.567,0,0,0-.536.445l-.5,2.647a8.127,8.127,0,0,0-1.509.63l-2.2-1.506a.566.566,0,0,0-.693.065L2.251,4.16a.566.566,0,0,0-.065.693L3.7,7.069a8.168,8.168,0,0,0-.62,1.507L.446,9.069A.567.567,0,0,0,0,9.605v2.658a.568.568,0,0,0,.444.537l2.633.494a8.149,8.149,0,0,0,.634,1.538l-1.5,2.191a.565.565,0,0,0,.065.693l1.88,1.88a.567.567,0,0,0,.693.066l2.19-1.5a8.184,8.184,0,0,0,1.493.622l.5,2.648a.566.566,0,0,0,.536.444h2.659a.566.566,0,0,0,.536-.444l.492-2.622a8.236,8.236,0,0,0,1.556-.634l2.218,1.517a.564.564,0,0,0,.693-.066L19.6,17.749a.566.566,0,0,0,.066-.693l-1.509-2.2a8.179,8.179,0,0,0,.644-1.556l2.633-.494a.567.567,0,0,0,.443-.537V9.606A.564.564,0,0,0,21.434,9.069ZM10.941,15.5A4.562,4.562,0,1,1,15.5,10.937,4.563,4.563,0,0,1,10.941,15.5Z" transform="translate(-0.002)" fill="#fff"/>
      </g>
    </g>
  </g>
</svg>
