<svg xmlns="http://www.w3.org/2000/svg" width="30" height="30" viewBox="0 0 30 30">
  <g id="pencil" transform="translate(-0.001)">
    <g id="Group_243" data-name="Group 243" transform="translate(0.001)">
      <path id="Path_243" data-name="Path 243" d="M15,0A15,15,0,1,0,30,15,15,15,0,0,0,15,0Zm7.131,10.795-1.425,1.425-2.9-2.9-1.1,1.1,2.9,2.9-7.113,7.113-2.9-2.9-1.1,1.1,2.9,2.9-.709.709-.014-.013a.561.561,0,0,1-.358.257l-2.7.6a.562.562,0,0,1-.671-.672l.6-2.7a.563.563,0,0,1,.258-.358l-.014-.014L19.231,7.894a.43.43,0,0,1,.608,0l2.292,2.292A.43.43,0,0,1,22.131,10.795Z" transform="translate(-0.001)"/>
    </g>
  </g>
</svg>
