<svg xmlns="http://www.w3.org/2000/svg" width="23.933" height="22" viewBox="0 0 23.933 22">
  <g id="portfolio" transform="translate(0)">
    <path id="Path_257" data-name="Path 257" d="M211,240h3.847v1.282H211Zm0,0" transform="translate(-200.957 -228.161)" fill="#169ddd"/>
    <path id="Path_258" data-name="Path 258" d="M19.417,87.072H15.472v.752a.728.728,0,0,1-.7.752H9.162a.728.728,0,0,1-.7-.752v-.752H4.517a2.12,2.12,0,0,1-2-1.543L0,77.41V93.844A2.187,2.187,0,0,0,2.1,96.1H21.83a2.187,2.187,0,0,0,2.1-2.257V77.411l-2.521,8.118A2.119,2.119,0,0,1,19.417,87.072Zm0,0" transform="translate(0 -74.101)" fill="#169ddd"/>
    <path id="Path_259" data-name="Path 259" d="M39.5,0H33.84a2.033,2.033,0,0,0-2.124,1.923v.641H25.809l2.67,7.256a.706.706,0,0,0,.672.438h3.982V9.617a.677.677,0,0,1,.708-.641H39.5a.677.677,0,0,1,.708.641v.641h3.982a.706.706,0,0,0,.672-.438l2.67-7.256H41.627V1.923A2.033,2.033,0,0,0,39.5,0ZM33.133,2.565V1.923a.677.677,0,0,1,.708-.641H39.5a.677.677,0,0,1,.708.641v.641Zm0,0" transform="translate(-24.705)" fill="#169ddd"/>
  </g>
</svg>
