<svg id="website" xmlns="http://www.w3.org/2000/svg" width="63.645" height="63.645" viewBox="0 0 63.645 63.645">
  <g id="Group_262" data-name="Group 262">
    <path id="Path_260" data-name="Path 260" d="M61.78,0H1.865A1.865,1.865,0,0,0,0,1.865V61.78a1.865,1.865,0,0,0,1.865,1.865H61.78a1.865,1.865,0,0,0,1.865-1.865V1.865A1.865,1.865,0,0,0,61.78,0ZM38.493,12.529a1.863,1.863,0,1,1-.547,1.319A1.877,1.877,0,0,1,38.493,12.529Zm-9.987,0a1.866,1.866,0,1,1-.546,1.319A1.878,1.878,0,0,1,28.506,12.529ZM19.839,23.966H43.805a1.865,1.865,0,1,1,0,3.729H19.839a1.865,1.865,0,0,1,0-3.729ZM49.8,51.661H13.848a1.865,1.865,0,1,1,0-3.729H49.8a1.865,1.865,0,0,1,0,3.729Zm0-11.983H13.848a1.865,1.865,0,0,1,0-3.729H49.8a1.865,1.865,0,1,1,0,3.729Zm1.318-24.512a1.863,1.863,0,1,1,.547-1.319A1.877,1.877,0,0,1,51.115,15.166Z" fill="#fff"/>
  </g>
</svg>
