<svg xmlns="http://www.w3.org/2000/svg" width="31.778" height="38.134" viewBox="0 0 31.778 38.134">
  <g id="text-file" transform="translate(-36.546)">
    <g id="Group_273" data-name="Group 273" transform="translate(36.546)">
      <path id="Path_275" data-name="Path 275" d="M54.818,15.889a2.373,2.373,0,0,1-2.383-2.383V0H38.929a2.3,2.3,0,0,0-1.688.7,2.3,2.3,0,0,0-.7,1.688V35.75a2.373,2.373,0,0,0,2.383,2.383H65.941a2.373,2.373,0,0,0,2.383-2.383V15.889Zm7.15,15.095a.764.764,0,0,1-.794.794H43.7a.764.764,0,0,1-.794-.794V29.395A.764.764,0,0,1,43.7,28.6H61.174a.764.764,0,0,1,.794.794Zm0-6.356a.764.764,0,0,1-.794.795H43.7a.764.764,0,0,1-.794-.795V23.039a.764.764,0,0,1,.794-.794H61.174a.764.764,0,0,1,.794.794Z" transform="translate(-36.546)" fill="#052e5d"/>
      <path id="Path_276" data-name="Path 276" d="M266.834,10.214l-7.746-7.746A6.033,6.033,0,0,0,255.81.854V13.491h12.637A6.032,6.032,0,0,0,266.834,10.214Z" transform="translate(-236.743 -0.78)" fill="#052e5d"/>
    </g>
  </g>
</svg>
