<svg id="cloud-backup-up-arrow" xmlns="http://www.w3.org/2000/svg" width="89.721" height="59.814" viewBox="0 0 89.721 59.814">
  <g id="backup" transform="translate(0 0)">
    <path id="Path_279" data-name="Path 279" d="M72.525,124.43A28.136,28.136,0,0,0,44.861,102a27.347,27.347,0,0,0-24.673,14.954C8.6,118.449,0,127.795,0,139.384a22.5,22.5,0,0,0,22.43,22.43h48.6a18.51,18.51,0,0,0,18.692-18.692A19.03,19.03,0,0,0,72.525,124.43ZM52.337,135.645V150.6H37.384V135.645H26.169l18.692-18.692,18.692,18.692Z" transform="translate(0 -102)" fill="#b7dceb"/>
  </g>
</svg>
