<svg xmlns="http://www.w3.org/2000/svg" width="63.686" height="49.534" viewBox="0 0 63.686 49.534">
  <g id="upload-folder" transform="translate(0 -5)">
    <path id="Path_359" data-name="Path 359" d="M62.908,16.939a3.54,3.54,0,0,0-2.76-1.325H56.61a3.538,3.538,0,0,0-3.538-3.538H49.534V8.538A3.538,3.538,0,0,0,46,5H3.538A3.538,3.538,0,0,0,0,8.538V51a3.538,3.538,0,0,0,3.538,3.538H27.4V41.911H22.975a1.768,1.768,0,0,1-1.251-3.019L34.107,26.51a1.772,1.772,0,0,1,2.5,0L48.994,38.894a1.767,1.767,0,0,1-1.25,3.017H43.322V54.534h9.75a3.532,3.532,0,0,0,3.452-2.771L63.6,19.92A3.525,3.525,0,0,0,62.908,16.939ZM46,12.076H42.457a3.538,3.538,0,0,0-3.538,3.538H17.691a3.536,3.536,0,0,0-3.453,2.771L7.161,50.229A3.544,3.544,0,0,0,7.079,51H3.538V8.538H46Z" fill="#fff"/>
  </g>
</svg>
