<svg id="website" xmlns="http://www.w3.org/2000/svg" width="23.206" height="23.206" viewBox="0 0 23.206 23.206">
  <g id="Group_262" data-name="Group 262">
    <path id="Path_260" data-name="Path 260" d="M22.526,0H.68A.68.68,0,0,0,0,.68V22.526a.68.68,0,0,0,.68.68H22.526a.68.68,0,0,0,.68-.68V.68A.68.68,0,0,0,22.526,0ZM14.035,4.568a.679.679,0,1,1-.2.481A.684.684,0,0,1,14.035,4.568Zm-3.641,0a.681.681,0,1,1-.2.481A.685.685,0,0,1,10.394,4.568Zm-3.16,4.17h8.738a.68.68,0,1,1,0,1.36H7.234a.68.68,0,1,1,0-1.36Zm10.923,10.1H5.049a.68.68,0,1,1,0-1.36H18.157a.68.68,0,0,1,0,1.36Zm0-4.369H5.049a.68.68,0,1,1,0-1.36H18.157a.68.68,0,0,1,0,1.36Zm.481-8.937a.679.679,0,1,1,.2-.481A.684.684,0,0,1,18.637,5.53Z" fill="#169ddd"/>
  </g>
</svg>
